M48
; DRILL file {KiCad 5.1.8} date Sun Dec 13 17:35:15 2020
; FORMAT={-:-/ absolute / inch / decimal}
; #@! TF.CreationDate,2020-12-13T17:35:15-05:00
; #@! TF.GenerationSoftware,Kicad,Pcbnew,5.1.8
FMAT,2
INCH
T1C0.0315
T2C0.0354
T3C0.0394
T4C0.0433
T5C0.0598
T6C0.1378
%
G90
G05
T1
X-1.3047Y-1.3504
X-1.3047Y-1.6504
X-1.2047Y-1.3504
X-1.2047Y-1.6504
X-2.122Y-1.4724
X-2.122Y-1.5724
X-2.122Y-1.6724
X-1.822Y-1.4724
X-1.822Y-1.5724
X-1.822Y-1.6724
X-1.0236Y-0.9331
X-0.6236Y-0.9331
X-1.0197Y-1.7402
X-0.6197Y-1.7402
X-0.7835Y-2.3543
X-0.3835Y-2.3543
X-1.022Y-0.5079
X-0.622Y-0.5079
X-1.437Y-0.8228
X-1.437Y-1.2228
X-1.022Y-0.374
X-0.622Y-0.374
X-1.2638Y-0.8228
X-1.2638Y-1.2228
X-1.0181Y-1.5906
X-0.6181Y-1.5906
X-1.0236Y-0.8051
X-0.6236Y-0.8051
X-3.1929Y-0.315
X-3.1929Y-0.4134
X-1.0236Y-1.061
X-0.6236Y-1.061
X-1.2819Y-2.5079
X-0.8819Y-2.5079
X-2.1339Y-0.3165
X-2.1339Y-0.7165
X-1.2858Y-2.3543
X-0.8858Y-2.3543
X-1.0181Y-1.8858
X-0.6181Y-1.8858
X-0.7874Y-2.5079
X-0.3874Y-2.5079
X-0.9252Y-1.4173
X-0.8252Y-1.4173
X-0.7252Y-1.4173
X-2.5748Y-0.315
X-2.5748Y-0.5118
T2
X-1.0157Y-2.7067
X-0.9157Y-2.7067
X-2.3583Y-0.3528
X-2.3583Y-0.4528
X-0.4409Y-0.3898
X-0.4409Y-0.4898
X-0.4961Y-2.7067
X-0.3961Y-2.7067
X-1.2756Y-2.7067
X-1.1756Y-2.7067
X-0.7559Y-2.7067
X-0.6559Y-2.7067
T3
X-1.0709Y-2.1083
X-1.0709Y-2.2083
X-2.3917Y-2.1122
X-2.3917Y-2.2122
X-2.3917Y-2.3122
X-3.0217Y-2.1122
X-3.0217Y-2.2122
X-3.0217Y-2.3122
X-2.4173Y-0.685
X-2.3173Y-0.685
X-2.437Y-1.4843
X-2.437Y-1.5843
X-2.437Y-1.6843
X-2.5492Y-2.1122
X-2.5492Y-2.2122
X-2.5492Y-2.3122
X-0.7559Y-2.1083
X-0.7559Y-2.2083
X-2.8642Y-2.1122
X-2.8642Y-2.2122
X-2.8642Y-2.3122
X-1.5079Y-1.4843
X-1.5079Y-1.5843
X-1.5079Y-1.6843
X-0.3858Y-1.3394
X-0.3858Y-1.4394
X-0.3858Y-1.5394
X-2.0787Y-1.0457
X-2.0787Y-1.1457
X-1.9787Y-1.0457
X-1.9787Y-1.1457
X-1.8787Y-1.0457
X-1.8787Y-1.1457
X-2.5827Y-1.4843
X-2.5827Y-1.5843
X-2.5827Y-1.6843
X-2.7067Y-2.1122
X-2.7067Y-2.2122
X-2.7067Y-2.3122
X-0.9134Y-2.1083
X-0.9134Y-2.2083
X-3.1791Y-2.1122
X-3.1791Y-2.2122
X-3.1791Y-2.3122
X-1.1496Y-0.3921
X-1.1496Y-0.4921
X-0.5984Y-2.1083
X-0.5984Y-2.2083
T4
X-2.2638Y-2.5984
X-2.2638Y-2.7756
X-2.0079Y-2.5984
X-2.0079Y-2.7756
X-2.9528Y-0.315
X-2.8528Y-0.315
X-2.7528Y-0.315
X-3.1299Y-2.5984
X-3.1299Y-2.7756
X-2.874Y-2.5984
X-2.874Y-2.7756
X-2.6969Y-2.5984
X-2.6969Y-2.7756
X-2.4409Y-2.5984
X-2.4409Y-2.7756
X-3.563Y-2.5984
X-3.563Y-2.7756
X-3.3071Y-2.5984
X-3.3071Y-2.7756
X-1.0236Y-1.2008
X-0.6236Y-1.2008
T5
X-3.622Y-0.4291
X-3.622Y-0.6291
T6
X-0.1575Y-0.1575
X-3.7795Y-2.9921
X-0.1575Y-2.9921
X-3.7795Y-0.1575
T0
M30
